# xmcd CD database file
#
# Track frame offsets:
#	150
#	19466
#	40465
#	59692
#
# Disc length: 1073 seconds
#
# Revision: 1
# Processed by: cddbd v1.5.2PL0 Copyright (c) Steve Scherf et al.
# Submitted via: CDex 1.70beta3
#
DISCID=38042f04
DTITLE=Trefle - 桜
DYEAR=2016
DGENRE=演歌
TTITLE0=桜
TTITLE1=君の呼ぶ名前
TTITLE2=桜 ～Original Karaoke～
TTITLE3=君の呼ぶ名前 ～Original Karaoke～
EXTD=YEAR: 2016
EXTT0=
EXTT1=
EXTT2=
EXTT3=
PLAYORDER=
